<?xml version="1.0" encoding="UTF-8" standalone="no"?>
<svg
   id="logo"
   data-name="Layer 1"
   viewBox="0 0 350 350"
   version="1.1"
   sodipodi:docname="logo-dikey-inkscape.svg"
   width="350"
   height="350"
   inkscape:version="1.1.2 (b8e25be8, 2022-02-05)"
   xmlns:inkscape="http://www.inkscape.org/namespaces/inkscape"
   xmlns:sodipodi="http://sodipodi.sourceforge.net/DTD/sodipodi-0.dtd"
   xmlns="http://www.w3.org/2000/svg"
   xmlns:svg="http://www.w3.org/2000/svg">
  <defs
     id="defs23" />
  <sodipodi:namedview
     id="namedview21"
     pagecolor="#ffffff"
     bordercolor="#666666"
     borderopacity="1.0"
     inkscape:pageshadow="2"
     inkscape:pageopacity="0.0"
     inkscape:pagecheckerboard="0"
     showgrid="false"
     inkscape:zoom="0.5953125"
     inkscape:cx="368.71391"
     inkscape:cy="540.05249"
     inkscape:window-width="1312"
     inkscape:window-height="923"
     inkscape:window-x="0"
     inkscape:window-y="25"
     inkscape:window-maximized="0"
     inkscape:current-layer="logo" />
  <!-- K -->
  <path
     d="m 143.40142,147.41976 h -4.9 v 21.88 h -10.6 v -53.18 h 10.6 v 21.54 h 5 l 17.58,-21.54 h 13.3 l -22.3,25.94 24,27.24 h -13.76 z"
     id="path9" />
  <!-- i -->
  <path
     d="m 190.96142,120.37976 a 6.35,6.35 0 0 1 -12.69,0 6.35,6.35 0 1 1 12.69,0 z m -1.37,48.84 h -9.93 v -36.8 h 9.95 z"
     id="path11" />
  <!-- m -->
  <path
     d="m 258.08142,145.88976 v 23.44 h -9.88 v -20.28 c 0,-5.31 -2.7,-8.24 -7.18,-8.24 -4.25,0 -7.79,2.77 -7.79,8.32 v 20.17 h -9.91 v -20.25 c 0,-5.31 -2.66,-8.24 -7.18,-8.24 -4.25,0 -7.79,2.77 -7.79,8.32 v 20.17 h -9.91 v -36.81 h 9.65 v 4.33 c 2.62,-3.91 6.65,-5.31 10.82,-5.31 a 14,14 0 0 1 12.16,6.3 c 2.85,-4.67 7.67,-6.3 12.5,-6.3 8.66,0 14.51,5.81 14.51,14.38 z"
     id="path13" />
  <!-- l -->
  <path
     d="m 276.58142,169.29976 h -9.92 v -54.7 h 9.92 z"
     id="path15" />
  <!-- i -->
  <path
     d="m 296.78142,120.37976 a 6.34,6.34 0 0 1 -12.68,0 6.34,6.34 0 1 1 12.68,0 z m -1.36,48.84 h -10 v -36.8 h 10 z"
     id="path17" />
  <!-- k -->
  <path
     d="m 314.18142,145.59976 h 3.48 l 10.37,-13.11 h 12.16 l -14.53,17.32 14.62,19.49 h -12.16 l -10.6,-14.89 h -3.34 v 14.89 h -9.91 v -54.7 h 9.91 z"
     id="path19" />
  <path
     d="m 146.92893,183.46884 c 17.17,0 28.18,10.41 28.18,26.59 0,16.18 -11,26.59 -28.18,26.59 h -20.32 v -53.18 z m -13.6,6.34 v 40.5 h 13.6 c 13.94,0 21.15,-8.21 21.15,-20.25 0,-12.04 -7.21,-20.25 -21.15,-20.25 z"
     id="path21" />
  <path
     d="m 228.01893,236.64884 h -7.17 l -5.85,-14.51 h -25.8 l -5.81,14.51 h -6.95 l 21.61,-53.18 h 8.32 z m -36.27,-20.85 h 20.7 l -10.33,-25.72 z"
     id="path23" />
  <path
     d="m 283.94893,210.05884 c 0,15.92 -11.58,27.39 -27.54,27.39 -15.96,0 -27.54,-11.47 -27.54,-27.39 0,-15.92 11.59,-27.39 27.54,-27.39 15.95,0 27.54,11.47 27.54,27.39 z m -48.09,0 c 0,12.5 8.85,21 20.55,21 11.7,0 20.55,-8.47 20.55,-21 0,-12.53 -8.85,-21 -20.55,-21 -11.7,0 -20.55,8.5 -20.55,21 z"
     id="path25" />
  <path
     d="m 31.102467,175.16535 a 43,43 0 0 1 42.9,-42.9 h 0.26 v -10.5 h -0.21 a 53.4,53.4 0 0 0 0,106.8 h 0.21 v -10.5 h -0.21 a 43,43 0 0 1 -42.95,-42.9 z"
     id="path27" />
  <polygon
     points="287.6,534.75 297.5,524.85 290.08,517.42 280.18,527.33 280.18,513.32 269.68,513.32 269.68,527.33 259.78,517.42 252.35,524.85 262.25,534.75 248.25,534.75 248.25,545.25 262.25,545.25 252.35,555.15 259.78,562.58 269.68,552.67 269.68,566.68 280.18,566.68 280.18,552.67 290.08,562.58 297.5,555.15 287.6,545.25 301.61,545.25 301.61,534.75 "
     id="polygon29"
     transform="translate(-197.73753,-364.83465)" />
</svg>
